<svg xmlns="http://www.w3.org/2000/svg" xmlns:xlink="http://www.w3.org/1999/xlink" viewBox="0 0 360 115" data-background-color="#ffffff" height="115" width="360"><g id="tight-bounds"><svg viewBox="0 0 360 115" height="115" width="360"><g><svg viewBox="0 0 356.12052 115.39897253035777" height="115.39897253035777" width="356.12052"><g><svg viewBox="0 0 356.12052 115.39897253035777" height="115.39897253035777" width="356.12052"><g><path d="M0 115.399v-115.399h356.121v115.399z" fill="#3c2c32" stroke="transparent" stroke-width="0" rx="0%" data-fill-palette-color="tertiary"/><path d="M3.283 112.116v-108.833h349.554v108.833z" fill="#ffffff" stroke="transparent" stroke-width="0" rx="0%" data-fill-palette-color="quaternary"/><path d="M9.85 105.549v-95.699h336.421v95.699z" fill="#3c2c32" stroke="transparent" stroke-width="0" data-fill-palette-color="tertiary"/></g><g transform="matrix(1,0,0,1,19.69974,19.69974)"><svg viewBox="0 0 316.72104 75.99949253035777" height="75.99949253035777" width="316.72104"><g><svg viewBox="0 0 316.72104 42.17154405486969" height="42.17154405486969" width="316.72104"><g transform="matrix(1,0,0,1,0,0)"><svg width="316.72104" viewBox="2.4800000190734863 -35.70000076293945 273.3399963378906 36.400001525878906" height="42.17154405486969" data-palette-color="#ffffff"><path d="M14 0.7L14 0.7Q11.85 0.7 9.64 0.34 7.43-0.03 5.55-0.58 3.68-1.13 2.48-1.68L2.48-1.68 3.18-7.48Q4.7-6.73 6.61-6.03 8.53-5.33 10.65-4.85 12.78-4.38 14.95-4.38L14.95-4.38Q17.98-4.38 19.78-5.51 21.58-6.65 21.58-9.05L21.58-9.05Q21.58-10.85 20.63-11.99 19.68-13.13 17.76-13.96 15.85-14.8 12.9-15.73L12.9-15.73Q10.08-16.63 7.74-17.82 5.4-19.03 4-20.96 2.6-22.9 2.6-26.03L2.6-26.03Q2.6-28.85 4.04-31.04 5.48-33.23 8.28-34.46 11.08-35.7 15.2-35.7L15.2-35.7Q18.55-35.7 21.44-34.96 24.33-34.23 26.28-33.38L26.28-33.38 25.73-27.68Q22.83-29.23 20.24-29.93 17.65-30.63 14.93-30.63L14.93-30.63Q11.98-30.63 10.16-29.58 8.35-28.53 8.35-26.25L8.35-26.25Q8.35-24.6 9.22-23.59 10.1-22.58 11.8-21.85 13.5-21.13 15.95-20.35L15.95-20.35Q19.68-19.23 22.28-17.8 24.88-16.38 26.24-14.33 27.6-12.28 27.6-9.25L27.6-9.25Q27.6-7.3 26.91-5.53 26.23-3.75 24.65-2.34 23.08-0.93 20.46-0.11 17.85 0.7 14 0.7ZM45.4 0L39.95 0 39.95-29.9 29.87-29.9 29.87-35 55.47-35 55.47-29.9 45.4-29.9 45.4 0ZM65.59 0L60.14 0 60.14-35 65.59-35 65.59 0ZM94.27 0L73.47 0 73.47-35 78.92-35 78.92-4.9 94.27-4.9 94.27 0ZM103.94 0L98.49 0 98.49-35 103.94-35 103.94 0ZM117.41 0L111.81 0 111.81-35 123.76-35Q127.49-35 130.21-33.84 132.94-32.68 134.4-30.18 135.86-27.68 135.86-23.68L135.86-23.68Q135.86-19.68 134.4-17.14 132.94-14.6 130.23-13.4 127.51-12.2 123.81-12.2L123.81-12.2 117.41-12.2 117.41 0ZM117.41-30.28L117.41-16.93 123.09-16.93Q126.69-16.93 128.49-18.55 130.29-20.18 130.29-23.6L130.29-23.6Q130.29-27.05 128.54-28.66 126.79-30.28 123.04-30.28L123.04-30.28 117.41-30.28ZM150.99 0.7L150.99 0.7Q148.84 0.7 146.62 0.34 144.41-0.03 142.54-0.58 140.66-1.13 139.46-1.68L139.46-1.68 140.16-7.48Q141.69-6.73 143.6-6.03 145.51-5.33 147.64-4.85 149.76-4.38 151.94-4.38L151.94-4.38Q154.96-4.38 156.76-5.51 158.56-6.65 158.56-9.05L158.56-9.05Q158.56-10.85 157.61-11.99 156.66-13.13 154.75-13.96 152.84-14.8 149.89-15.73L149.89-15.73Q147.06-16.63 144.72-17.82 142.39-19.03 140.99-20.96 139.59-22.9 139.59-26.03L139.59-26.03Q139.59-28.85 141.02-31.04 142.46-33.23 145.26-34.46 148.06-35.7 152.19-35.7L152.19-35.7Q155.54-35.7 158.42-34.96 161.31-34.23 163.26-33.38L163.26-33.38 162.71-27.68Q159.81-29.23 157.22-29.93 154.64-30.63 151.91-30.63L151.91-30.63Q148.96-30.63 147.15-29.58 145.34-28.53 145.34-26.25L145.34-26.25Q145.34-24.6 146.21-23.59 147.09-22.58 148.79-21.85 150.49-21.13 152.94-20.35L152.94-20.35Q156.66-19.23 159.26-17.8 161.86-16.38 163.22-14.33 164.59-12.28 164.59-9.25L164.59-9.25Q164.59-7.3 163.9-5.53 163.21-3.75 161.64-2.34 160.06-0.93 157.45-0.11 154.84 0.7 150.99 0.7ZM194.31 0L181.28 0 181.28-35 194.31-35Q199.36-35 203.27-32.93 207.18-30.85 209.41-26.94 211.63-23.03 211.63-17.5L211.63-17.5Q211.63-11.98 209.41-8.06 207.18-4.15 203.27-2.08 199.36 0 194.31 0L194.31 0ZM186.73-30.1L186.73-4.9 194.31-4.9Q198.06-4.9 200.58-6.46 203.11-8.03 204.39-10.86 205.68-13.7 205.68-17.5L205.68-17.5Q205.68-21.3 204.39-24.14 203.11-26.98 200.58-28.54 198.06-30.1 194.31-30.1L194.31-30.1 186.73-30.1ZM231.58 0.7L231.58 0.7Q226.65 0.7 223.44-1.21 220.23-3.13 218.65-6.63 217.08-10.13 217.08-14.93L217.08-14.93 217.08-35 222.53-35 222.53-16.35Q222.53-13.93 222.89-11.75 223.25-9.58 224.2-7.93 225.15-6.28 226.94-5.33 228.73-4.38 231.58-4.38L231.58-4.38Q234.45-4.38 236.24-5.33 238.03-6.28 238.98-7.94 239.93-9.6 240.28-11.76 240.63-13.93 240.63-16.35L240.63-16.35 240.63-35 246.08-35 246.08-14.93Q246.08-10.13 244.5-6.63 242.93-3.13 239.72-1.21 236.5 0.7 231.58 0.7ZM275.82 0L253.55 0 253.55-35 275.35-35 275.35-29.9 259.07-29.9 259.07-20.83 271.9-20.83 271.9-15.73 259.07-15.73 259.07-5.1 275.82-5.1 275.82 0Z" opacity="1" transform="matrix(1,0,0,1,0,0)" fill="#ffffff" class="undefined-text-0" data-fill-palette-color="quaternary" id="text-0"/></svg></g></svg></g><g transform="matrix(1,0,0,1,0,48.738124054869694)"><svg viewBox="0 0 316.72104 27.261368475488073" height="27.261368475488073" width="316.72104"><g transform="matrix(1,0,0,1,0,0)"><svg width="316.72104" viewBox="0.75 -37.5 576.1799926757812 49.599998474121094" height="27.261368475488073" data-palette-color="#ffffff"><path d="M15.7 0L10.95 0 10.95-30.7 0.75-30.7 0.75-35 25.9-35 25.9-30.7 15.7-30.7 15.7 0ZM33.9 0L29.35 0 29.35-37.5 33.9-37.5 33.9-20.25 32.3-20.35Q34.02-22.53 36.01-23.76 38-25 41.1-25L41.1-25Q44.27-25 46.4-23.58 48.52-22.15 49.59-19.6 50.65-17.05 50.65-13.65L50.65-13.65 50.65 0 46.15 0 46.15-13.1Q46.15-17.15 44.66-19.07 43.17-21 40.1-21L40.1-21Q37.77-21 35.98-19.75 34.2-18.5 33.15-16.4L33.15-16.4 33.9-19.15 33.9 0ZM68.25 0.5L68.25 0.5Q63.92 0.5 60.97-1.28 58.02-3.05 56.51-5.99 55-8.93 55-12.45L55-12.45Q55-15.88 56.41-18.73 57.82-21.58 60.51-23.29 63.2-25 67-25L67-25Q70.05-25 72.43-23.79 74.82-22.58 76.18-20.26 77.55-17.95 77.55-14.65L77.55-14.65Q77.55-14.13 77.51-13.51 77.47-12.9 77.35-12.25L77.35-12.25 59.6-12.25Q59.92-8.85 61.22-6.95 62.52-5.05 64.5-4.28 66.47-3.5 68.8-3.5L68.8-3.5Q70.5-3.5 72.35-3.85 74.2-4.2 75.85-4.95L75.85-4.95 76.45-1.4Q75.02-0.78 72.97-0.14 70.92 0.5 68.25 0.5ZM60-15.35L60-15.35 72.9-15.35Q72.9-17.07 72.25-18.35 71.6-19.63 70.27-20.31 68.95-21 66.9-21L66.9-21Q63.9-21 62.28-19.51 60.67-18.03 60-15.35ZM97.84 12.1L93.34 12.1 93.34-24.5 96.84-24.5 97.64-18.9 96.39-19.8Q97.94-22.2 100.22-23.6 102.49-25 105.79-25L105.79-25Q109.14-25 111.54-23.3 113.94-21.6 115.22-18.71 116.49-15.83 116.49-12.25L116.49-12.25Q116.49-8.68 115.29-5.79 114.09-2.9 111.72-1.2 109.34 0.5 105.79 0.5L105.79 0.5Q102.87 0.5 100.5-0.71 98.14-1.93 97.09-4.35L97.09-4.35 97.84-5.25 97.84 12.1ZM104.94-3.5L104.94-3.5Q108.22-3.5 110.05-5.81 111.89-8.13 111.89-12.25L111.89-12.25Q111.89-16.38 110.05-18.69 108.22-21 104.94-21L104.94-21Q102.92-21 101.25-20.04 99.59-19.07 98.59-17.14 97.59-15.2 97.59-12.25L97.59-12.25Q97.59-9.18 98.59-7.25 99.59-5.33 101.25-4.41 102.92-3.5 104.94-3.5ZM125.99 0L121.19 0 121.19-24.5 124.89-24.5 125.44-20.45Q127.31-22.78 129.03-23.89 130.74-25 132.69-25L132.69-25Q133.31-25 133.84-24.85L133.84-24.85 133.39-19.9Q133.06-19.98 132.7-20.01 132.34-20.05 131.89-20.05L131.89-20.05Q129.94-20.05 128.3-19.19 126.66-18.32 125.99-17.3L125.99-17.3 125.99 0ZM148.09 0.5L148.09 0.5Q143.76 0.5 140.81-1.28 137.86-3.05 136.35-5.99 134.84-8.93 134.84-12.45L134.84-12.45Q134.84-15.88 136.25-18.73 137.66-21.58 140.35-23.29 143.04-25 146.84-25L146.84-25Q149.89-25 152.27-23.79 154.66-22.58 156.02-20.26 157.39-17.95 157.39-14.65L157.39-14.65Q157.39-14.13 157.35-13.51 157.31-12.9 157.19-12.25L157.19-12.25 139.44-12.25Q139.76-8.85 141.06-6.95 142.36-5.05 144.34-4.28 146.31-3.5 148.64-3.5L148.64-3.5Q150.34-3.5 152.19-3.85 154.04-4.2 155.69-4.95L155.69-4.95 156.29-1.4Q154.86-0.78 152.81-0.14 150.76 0.5 148.09 0.5ZM139.84-15.35L139.84-15.35 152.74-15.35Q152.74-17.07 152.09-18.35 151.44-19.63 150.11-20.31 148.79-21 146.74-21L146.74-21Q143.74-21 142.12-19.51 140.51-18.03 139.84-15.35ZM168.88 0.5L168.88 0.5Q165.63 0.5 163.5-0.28 161.36-1.05 160.48-1.65L160.48-1.65 161.03-6Q161.83-5.3 163.86-4.4 165.88-3.5 168.68-3.5L168.68-3.5Q171.06-3.5 172.32-4.3 173.58-5.1 173.58-6.55L173.58-6.55Q173.58-7.83 172.77-8.61 171.96-9.4 170.82-9.86 169.68-10.33 168.68-10.6L168.68-10.6Q167.01-11.05 165.22-11.74 163.43-12.43 162.21-13.8 160.98-15.18 160.98-17.65L160.98-17.65Q160.98-19.53 161.88-21.21 162.78-22.9 164.81-23.95 166.83-25 170.18-25L170.18-25Q172.63-25 174.17-24.49 175.71-23.98 176.83-23.4L176.83-23.4 176.28-19.3Q175.21-20.2 173.78-20.83 172.36-21.45 170.28-21.45L170.28-21.45Q168.18-21.45 166.86-20.66 165.53-19.88 165.53-18.15L165.53-18.15Q165.53-16.43 166.95-15.7 168.36-14.98 171.23-14.1L171.23-14.1Q172.13-13.85 173.32-13.38 174.51-12.9 175.63-12.1 176.76-11.3 177.5-10.01 178.23-8.72 178.23-6.8L178.23-6.8Q178.23-5.18 177.46-3.49 176.68-1.8 174.66-0.65 172.63 0.5 168.88 0.5ZM189.58 0.5L189.58 0.5Q186.33 0.5 184.19-0.28 182.06-1.05 181.18-1.65L181.18-1.65 181.73-6Q182.53-5.3 184.56-4.4 186.58-3.5 189.38-3.5L189.38-3.5Q191.76-3.5 193.02-4.3 194.28-5.1 194.28-6.55L194.28-6.55Q194.28-7.83 193.47-8.61 192.66-9.4 191.52-9.86 190.38-10.33 189.38-10.6L189.38-10.6Q187.71-11.05 185.92-11.74 184.13-12.43 182.91-13.8 181.68-15.18 181.68-17.65L181.68-17.65Q181.68-19.53 182.58-21.21 183.48-22.9 185.51-23.95 187.53-25 190.88-25L190.88-25Q193.33-25 194.87-24.49 196.41-23.98 197.53-23.4L197.53-23.4 196.98-19.3Q195.91-20.2 194.48-20.83 193.06-21.45 190.98-21.45L190.98-21.45Q188.88-21.45 187.56-20.66 186.23-19.88 186.23-18.15L186.23-18.15Q186.23-16.43 187.64-15.7 189.06-14.98 191.93-14.1L191.93-14.1Q192.83-13.85 194.02-13.38 195.21-12.9 196.33-12.1 197.46-11.3 198.19-10.01 198.93-8.72 198.93-6.8L198.93-6.8Q198.93-5.18 198.16-3.49 197.38-1.8 195.36-0.65 193.33 0.5 189.58 0.5ZM212.13 0.5L212.13 0.5Q209.25 0.5 207.23-0.66 205.2-1.83 204.14-4.2 203.08-6.58 203.08-10.25L203.08-10.25 203.08-24.5 207.58-24.5 207.58-11.5Q207.58-7.6 208.92-5.55 210.25-3.5 213.28-3.5L213.28-3.5Q215.35-3.5 217.13-4.5 218.9-5.5 219.58-7.7L219.58-7.7 218.93-5.25 218.93-24.5 223.43-24.5 223.43 0 219.43 0 218.53-4.8 219.73-4Q218.5-1.73 216.74-0.61 214.98 0.5 212.13 0.5ZM234.33 0L229.53 0 229.53-24.5 233.23-24.5 233.78-20.45Q235.65-22.78 237.36-23.89 239.08-25 241.03-25L241.03-25Q241.65-25 242.18-24.85L242.18-24.85 241.73-19.9Q241.4-19.98 241.04-20.01 240.68-20.05 240.23-20.05L240.23-20.05Q238.28-20.05 236.64-19.19 235-18.32 234.33-17.3L234.33-17.3 234.33 0ZM256.42 0.5L256.42 0.5Q252.1 0.5 249.15-1.28 246.2-3.05 244.69-5.99 243.17-8.93 243.17-12.45L243.17-12.45Q243.17-15.88 244.59-18.73 246-21.58 248.69-23.29 251.37-25 255.17-25L255.17-25Q258.22-25 260.61-23.79 263-22.58 264.36-20.26 265.72-17.95 265.72-14.65L265.72-14.65Q265.72-14.13 265.69-13.51 265.65-12.9 265.52-12.25L265.52-12.25 247.77-12.25Q248.1-8.85 249.4-6.95 250.7-5.05 252.67-4.28 254.65-3.5 256.97-3.5L256.97-3.5Q258.67-3.5 260.52-3.85 262.37-4.2 264.02-4.95L264.02-4.95 264.62-1.4Q263.2-0.78 261.15-0.14 259.1 0.5 256.42 0.5ZM248.17-15.35L248.17-15.35 261.07-15.35Q261.07-17.07 260.42-18.35 259.77-19.63 258.45-20.31 257.12-21 255.07-21L255.07-21Q252.07-21 250.46-19.51 248.85-18.03 248.17-15.35ZM286.02 0L281.52 0 281.52-24.5 286.02-24.5 286.02 0ZM286.02-30L281.52-30 281.52-35 286.02-35 286.02-30ZM299.07 0.5L299.07 0.5Q295.82 0.5 293.68-0.28 291.54-1.05 290.67-1.65L290.67-1.65 291.22-6Q292.02-5.3 294.04-4.4 296.07-3.5 298.87-3.5L298.87-3.5Q301.24-3.5 302.5-4.3 303.77-5.1 303.77-6.55L303.77-6.55Q303.77-7.83 302.95-8.61 302.14-9.4 301-9.86 299.87-10.33 298.87-10.6L298.87-10.6Q297.19-11.05 295.4-11.74 293.62-12.43 292.39-13.8 291.17-15.18 291.17-17.65L291.17-17.65Q291.17-19.53 292.07-21.21 292.97-22.9 294.99-23.95 297.02-25 300.37-25L300.37-25Q302.82-25 304.35-24.49 305.89-23.98 307.02-23.4L307.02-23.4 306.47-19.3Q305.39-20.2 303.97-20.83 302.54-21.45 300.47-21.45L300.47-21.45Q298.37-21.45 297.04-20.66 295.72-19.88 295.72-18.15L295.72-18.15Q295.72-16.43 297.13-15.7 298.54-14.98 301.42-14.1L301.42-14.1Q302.32-13.85 303.5-13.38 304.69-12.9 305.82-12.1 306.94-11.3 307.68-10.01 308.42-8.72 308.42-6.8L308.42-6.8Q308.42-5.18 307.64-3.49 306.87-1.8 304.84-0.65 302.82 0.5 299.07 0.5ZM336.56 0.5L332.51 0.5Q330.19 0.5 328.79-0.35 327.39-1.2 326.75-2.54 326.11-3.88 326.11-5.35L326.11-5.35 326.11-21 321.91-21 322.31-24.5 326.11-24.5 326.11-30.55 330.61-31 330.61-24.5 337.06-24.5 337.06-21 330.61-21 330.61-8.1Q330.61-5.75 330.89-4.7 331.16-3.65 332.25-3.38 333.34-3.1 335.76-3.1L335.76-3.1 336.91-3.1 336.56 0.5ZM345.41 0L340.86 0 340.86-37.5 345.41-37.5 345.41-20.25 343.81-20.35Q345.53-22.53 347.52-23.76 349.51-25 352.61-25L352.61-25Q355.78-25 357.91-23.58 360.03-22.15 361.1-19.6 362.16-17.05 362.16-13.65L362.16-13.65 362.16 0 357.66 0 357.66-13.1Q357.66-17.15 356.17-19.07 354.68-21 351.61-21L351.61-21Q349.28-21 347.5-19.75 345.71-18.5 344.66-16.4L344.66-16.4 345.41-19.15 345.41 0ZM379.76 0.5L379.76 0.5Q375.43 0.5 372.48-1.28 369.53-3.05 368.02-5.99 366.51-8.93 366.51-12.45L366.51-12.45Q366.51-15.88 367.92-18.73 369.33-21.58 372.02-23.29 374.71-25 378.51-25L378.51-25Q381.56-25 383.94-23.79 386.33-22.58 387.69-20.26 389.06-17.95 389.06-14.65L389.06-14.65Q389.06-14.13 389.02-13.51 388.98-12.9 388.86-12.25L388.86-12.25 371.11-12.25Q371.43-8.85 372.73-6.95 374.03-5.05 376.01-4.28 377.98-3.5 380.31-3.5L380.31-3.5Q382.01-3.5 383.86-3.85 385.71-4.2 387.36-4.95L387.36-4.95 387.96-1.4Q386.53-0.78 384.48-0.14 382.43 0.5 379.76 0.5ZM371.51-15.35L371.51-15.35 384.41-15.35Q384.41-17.07 383.76-18.35 383.11-19.63 381.78-20.31 380.46-21 378.41-21L378.41-21Q375.41-21 373.79-19.51 372.18-18.03 371.51-15.35ZM409.35 12.1L404.85 12.1 404.85-24.5 408.35-24.5 409.15-18.9 407.9-19.8Q409.45-22.2 411.73-23.6 414-25 417.3-25L417.3-25Q420.65-25 423.05-23.3 425.45-21.6 426.73-18.71 428-15.83 428-12.25L428-12.25Q428-8.68 426.8-5.79 425.6-2.9 423.23-1.2 420.85 0.5 417.3 0.5L417.3 0.5Q414.38 0.5 412.01-0.71 409.65-1.93 408.6-4.35L408.6-4.35 409.35-5.25 409.35 12.1ZM416.45-3.5L416.45-3.5Q419.73-3.5 421.56-5.81 423.4-8.13 423.4-12.25L423.4-12.25Q423.4-16.38 421.56-18.69 419.73-21 416.45-21L416.45-21Q414.43-21 412.76-20.04 411.1-19.07 410.1-17.14 409.1-15.2 409.1-12.25L409.1-12.25Q409.1-9.18 410.1-7.25 411.1-5.33 412.76-4.41 414.43-3.5 416.45-3.5ZM440.45 0.5L439 0.5Q436.62 0.5 435.24-0.36 433.85-1.23 433.25-2.58 432.65-3.93 432.65-5.4L432.65-5.4 432.65-37.5 437.15-37.5 437.15-8Q437.15-5.9 437.42-4.85 437.7-3.8 438.54-3.45 439.37-3.1 441.1-3.1L441.1-3.1 440.45 0.5ZM456 0.5L456 0.5Q451.67 0.5 448.72-1.28 445.77-3.05 444.26-5.99 442.75-8.93 442.75-12.45L442.75-12.45Q442.75-15.88 444.16-18.73 445.57-21.58 448.26-23.29 450.95-25 454.75-25L454.75-25Q457.8-25 460.18-23.79 462.57-22.58 463.93-20.26 465.3-17.95 465.3-14.65L465.3-14.65Q465.3-14.13 465.26-13.51 465.22-12.9 465.1-12.25L465.1-12.25 447.35-12.25Q447.67-8.85 448.97-6.95 450.27-5.05 452.25-4.28 454.22-3.5 456.55-3.5L456.55-3.5Q458.25-3.5 460.1-3.85 461.95-4.2 463.6-4.95L463.6-4.95 464.2-1.4Q462.77-0.78 460.72-0.14 458.67 0.5 456 0.5ZM447.75-15.35L447.75-15.35 460.65-15.35Q460.65-17.07 460-18.35 459.35-19.63 458.02-20.31 456.7-21 454.65-21L454.65-21Q451.65-21 450.03-19.51 448.42-18.03 447.75-15.35ZM475.54 0.5L475.54 0.5Q473.27 0.5 471.57-0.43 469.87-1.35 468.93-2.95 467.99-4.55 467.99-6.6L467.99-6.6Q467.99-8.68 468.91-10.16 469.82-11.65 471.36-12.64 472.89-13.63 474.79-14.21 476.69-14.8 478.73-15.06 480.77-15.33 482.64-15.35L482.64-15.35Q482.64-18.85 481.27-19.93 479.89-21 477.29-21L477.29-21Q475.92-21 474.36-20.58 472.79-20.15 470.84-18.8L470.84-18.8 470.19-22.45Q471.67-23.58 473.87-24.29 476.07-25 478.49-25L478.49-25Q481.59-25 483.49-23.91 485.39-22.83 486.27-20.25 487.14-17.68 487.14-13.25L487.14-13.25 487.14-8.25Q487.14-6.5 487.31-5.36 487.47-4.23 488.06-3.66 488.64-3.1 489.94-3.1L489.94-3.1 490.39-3.1 489.69 0.5 489.34 0.5Q487.17 0.5 485.98 0.08 484.79-0.35 484.17-1.15 483.54-1.95 483.04-3.1L483.04-3.1Q481.67-1.5 479.79-0.5 477.92 0.5 475.54 0.5ZM476.39-3.1L476.39-3.1Q478.19-3.1 479.88-4 481.57-4.9 482.64-6.4L482.64-6.4 482.64-12.25Q479.07-12.13 476.86-11.55 474.64-10.98 473.62-9.83 472.59-8.68 472.59-6.85L472.59-6.85Q472.59-4.88 473.66-3.99 474.72-3.1 476.39-3.1ZM500.79 0.5L500.79 0.5Q497.54 0.5 495.4-0.28 493.27-1.05 492.39-1.65L492.39-1.65 492.94-6Q493.74-5.3 495.77-4.4 497.79-3.5 500.59-3.5L500.59-3.5Q502.97-3.5 504.23-4.3 505.49-5.1 505.49-6.55L505.49-6.55Q505.49-7.83 504.68-8.61 503.87-9.4 502.73-9.86 501.59-10.33 500.59-10.6L500.59-10.6Q498.92-11.05 497.13-11.74 495.34-12.43 494.12-13.8 492.89-15.18 492.89-17.65L492.89-17.65Q492.89-19.53 493.79-21.21 494.69-22.9 496.72-23.95 498.74-25 502.09-25L502.09-25Q504.54-25 506.08-24.49 507.62-23.98 508.74-23.4L508.74-23.4 508.19-19.3Q507.12-20.2 505.69-20.83 504.27-21.45 502.19-21.45L502.19-21.45Q500.09-21.45 498.77-20.66 497.44-19.88 497.44-18.15L497.44-18.15Q497.44-16.43 498.85-15.7 500.27-14.98 503.14-14.1L503.14-14.1Q504.04-13.85 505.23-13.38 506.42-12.9 507.54-12.1 508.67-11.3 509.4-10.01 510.14-8.72 510.14-6.8L510.14-6.8Q510.14-5.18 509.37-3.49 508.59-1.8 506.57-0.65 504.54 0.5 500.79 0.5ZM523.34 0.5L523.34 0.5Q520.46 0.5 518.44-0.66 516.41-1.83 515.35-4.2 514.29-6.58 514.29-10.25L514.29-10.25 514.29-24.5 518.79-24.5 518.79-11.5Q518.79-7.6 520.13-5.55 521.46-3.5 524.49-3.5L524.49-3.5Q526.56-3.5 528.34-4.5 530.11-5.5 530.79-7.7L530.79-7.7 530.14-5.25 530.14-24.5 534.64-24.5 534.64 0 530.64 0 529.74-4.8 530.94-4Q529.71-1.73 527.95-0.61 526.19 0.5 523.34 0.5ZM545.54 0L540.74 0 540.74-24.5 544.44-24.5 544.99-20.45Q546.86-22.78 548.57-23.89 550.29-25 552.24-25L552.24-25Q552.86-25 553.39-24.85L553.39-24.85 552.94-19.9Q552.61-19.98 552.25-20.01 551.89-20.05 551.44-20.05L551.44-20.05Q549.49-20.05 547.85-19.19 546.21-18.32 545.54-17.3L545.54-17.3 545.54 0ZM567.63 0.5L567.63 0.5Q563.31 0.5 560.36-1.28 557.41-3.05 555.9-5.99 554.38-8.93 554.38-12.45L554.38-12.45Q554.38-15.88 555.8-18.73 557.21-21.58 559.9-23.29 562.58-25 566.38-25L566.38-25Q569.43-25 571.82-23.79 574.21-22.58 575.57-20.26 576.93-17.95 576.93-14.65L576.93-14.65Q576.93-14.13 576.9-13.51 576.86-12.9 576.73-12.25L576.73-12.25 558.98-12.25Q559.31-8.85 560.61-6.95 561.91-5.05 563.88-4.28 565.86-3.5 568.18-3.5L568.18-3.5Q569.88-3.5 571.73-3.85 573.58-4.2 575.23-4.95L575.23-4.95 575.83-1.4Q574.41-0.78 572.36-0.14 570.31 0.5 567.63 0.5ZM559.38-15.35L559.38-15.35 572.28-15.35Q572.28-17.07 571.63-18.35 570.98-19.63 569.66-20.31 568.33-21 566.28-21L566.28-21Q563.28-21 561.67-19.51 560.06-18.03 559.38-15.35Z" opacity="1" transform="matrix(1,0,0,1,0,0)" fill="#ffffff" class="undefined-text-1" data-fill-palette-color="quaternary" id="text-1"/></svg></g></svg></g></svg></g></svg></g><g/></svg></g></svg><rect width="356.12052" height="115.39897253035777" fill="none" stroke="none" visibility="hidden"/></g><defs/></svg>